<svg width="401" height="201" viewBox="0 0 401 201" fill="none" xmlns="http://www.w3.org/2000/svg">
<path d="M312.134 85.6386C392.829 37.7986 442.638 29.9766 457.455 32.0456L539.832 40.6473L557.849 99.9712C531.935 134.23 470.102 207.108 430.079 224.551C380.05 246.353 92.9477 326.936 87.7611 328.511C83.6118 329.772 -24.3846 310.296 -77.864 300.4C-84.5376 270.32 -97.5967 205.705 -96.4441 187.886C-95.0033 165.612 -5.05626 97.6224 72.0922 94.6879C149.241 91.7534 211.265 145.439 312.134 85.6386Z" fill="#EFF1FF"/>
<path d="M318.31 100.628C400.905 56.1492 450.994 50.3837 465.713 53.0607L547.667 65.0453L563.226 125.06C535.925 158.224 471.145 228.496 430.438 244.276C379.554 264.001 89.3785 332.7 84.1314 334.061C79.9338 335.149 -27.1695 311.245 -80.1965 299.157C-85.6265 268.828 -96.0153 203.73 -94.1303 185.974C-91.774 163.778 0.894882 99.5475 78.0987 99.7905C155.303 100.034 215.065 156.226 318.31 100.628Z" fill="url(#paint0_linear_1853_159267)"/>
<path d="M103.151 122.623C80.3341 135.125 51.702 126.763 39.1996 103.946C26.6973 81.1292 35.059 52.4972 57.8761 39.9948C80.6931 27.4924 109.325 35.8542 121.828 58.6712C134.33 81.4883 125.968 110.12 103.151 122.623Z" fill="#EFF1FF"/>
<path d="M68.3078 123.112C45.2246 116.37 31.9768 92.1929 38.718 69.1097C45.4593 46.0266 69.6367 32.7788 92.7199 39.52C115.803 46.2613 129.051 70.4387 122.31 93.5219C115.568 116.605 91.3909 129.853 68.3078 123.112Z" fill="white"/>
<path d="M89.2314 112.665C89.4393 112.552 89.6028 112.371 89.6954 112.153C89.7879 111.935 89.8041 111.692 89.7412 111.464L81.5338 81.0371C81.4512 80.7771 81.2716 80.559 81.0323 80.428C80.7931 80.297 80.5126 80.2633 80.2491 80.3338C79.9856 80.4043 79.7594 80.5736 79.6175 80.8066C79.4756 81.0395 79.4289 81.3182 79.4872 81.5846L87.7068 112.015C87.781 112.285 87.9593 112.515 88.2027 112.655C88.4461 112.794 88.7349 112.831 89.0057 112.758C89.0841 112.736 89.1598 112.705 89.2314 112.665Z" fill="#E0E5FF"/>
<path d="M81.5288 83.1607C81.772 83.0276 81.9864 82.8476 82.1598 82.6313C82.3332 82.4149 82.4621 82.1664 82.5391 81.9001L92.6398 47.3136C92.7172 47.0471 92.7413 46.768 92.7108 46.4922C92.6804 46.2164 92.5958 45.9493 92.4621 45.7062C92.1921 45.2151 91.7381 44.8515 91.1999 44.6952C90.6618 44.5389 90.0836 44.6028 89.5925 44.8728C89.1015 45.1428 88.7378 45.5969 88.5815 46.135L79.0802 78.692L60.0851 73.1447C59.5469 72.9884 58.9687 73.0523 58.4777 73.3223C57.9866 73.5923 57.623 74.0463 57.4667 74.5845C57.3104 75.1227 57.3743 75.7009 57.6443 76.1919C57.9143 76.683 58.3684 77.0466 58.9065 77.2029L79.9225 83.3338C80.4597 83.4913 81.0375 83.429 81.5288 83.1607Z" fill="#C7CFFF"/>
<defs>
<linearGradient id="paint0_linear_1853_159267" x1="263.021" y1="108.332" x2="289.934" y2="235.484" gradientUnits="userSpaceOnUse">
<stop stop-color="#F7F8FF"/>
<stop offset="0.457399" stop-color="#F7F8FF" stop-opacity="0"/>
</linearGradient>
</defs>
</svg>
