<svg width="134" height="41" viewBox="0 0 134 41" fill="none" xmlns="http://www.w3.org/2000/svg">
    <g clip-path="url(#clip0_1759_68240)">
        <rect x="0.5" y="0.5" width="133" height="40" rx="20" fill="#DD2590"/>
        <circle cx="9.14724" cy="15.3592" r="3.12858" transform="rotate(39.2391 9.14724 15.3592)" fill="#EA39A0"/>
        <circle cx="17.9482" cy="4.9412" r="3.34998" transform="rotate(39.2391 17.9482 4.9412)" fill="#EA39A0"/>
        <circle cx="30.2999" cy="15.0343" r="4.78204" transform="rotate(39.2391 30.2999 15.0343)" fill="#EA39A0"/>
        <circle cx="42.9354" cy="3.31407" r="6.28703" transform="rotate(39.2391 42.9354 3.31407)" fill="#EA39A0"/>
        <path
            d="M48.7596 22.2141C12.17 24.3264 15.298 42.5452 21.4357 51.3906C2.96089 59.3316 -34.4501 75.3363 -36.2959 75.8267C-38.6032 76.4397 24.6266 115.467 38.9844 117.442C50.4707 119.022 130.555 81.5345 169.161 62.5933C149.568 30.9945 109.583 -29.2613 106.385 -17.4946C102.389 -2.78619 94.4967 19.5737 48.7596 22.2141Z"
            fill="#EA39A0"/>
    </g>
    <defs>
        <clipPath id="clip0_1759_68240">
            <rect x="0.5" y="0.5" width="133" height="40" rx="20" fill="white"/>
        </clipPath>
    </defs>
</svg>
